<svg xmlns="http://www.w3.org/2000/svg" xmlns:xlink="http://www.w3.org/1999/xlink" viewBox="0 0 196.11 147.89"><defs><style>.cls-1{fill:url(#linear-gradient);}.cls-2{fill:url(#linear-gradient-2);}.cls-3{fill:url(#linear-gradient-3);}</style><linearGradient id="linear-gradient" x1="27.1" y1="73.94" x2="195.15" y2="73.94" gradientUnits="userSpaceOnUse"><stop offset="0" stop-color="#0367b0"/><stop offset="0.25" stop-color="#0465ad"/><stop offset="0.45" stop-color="#055fa3"/><stop offset="0.64" stop-color="#085692"/><stop offset="0.81" stop-color="#0b487a"/><stop offset="0.98" stop-color="#10375c"/><stop offset="1" stop-color="#113457"/></linearGradient><linearGradient id="linear-gradient-2" x1="156.2" y1="105.44" x2="196.11" y2="105.44" xlink:href="#linear-gradient"/><linearGradient id="linear-gradient-3" x1="0" y1="62.85" x2="27.64" y2="62.85" xlink:href="#linear-gradient"/></defs><g id="Layer_2" data-name="Layer 2"><g id="Layer_1-2" data-name="Layer 1"><path class="cls-1" d="M139.18,105.08a3.37,3.37,0,0,1-3.26-3.48V87.67a3.39,3.39,0,0,1,3.26-3.48h17V66.07a3.38,3.38,0,0,1,3.28-3.48h13.07a3.37,3.37,0,0,1,3.26,3.48V81.29l0,2.9h13c10.46-21,6.5-43.27-1.35-57.88C178.85,10.23,164.39.15,149.71,0h-.35c-10.26,0-24.78,4.63-38.23,25.33C97.69,4.63,83.17,0,72.89,0h-.35C57.88.15,43.4,10.23,34.78,26.31a61.6,61.6,0,0,0-3.51,7.82,62.56,62.56,0,0,0-4,26.76h1.34a3.15,3.15,0,0,0,3.3-1.72A58,58,0,0,1,35.24,54c1.55-2.25,2.66-2.35,4.74-.38s3.91,3.78,6.21,6c1.06-5,2-9.51,3-14,1.26-6.1,2.55-12.2,3.73-18.31.27-1.38.93-2.56,2.39-2.31a3.44,3.44,0,0,1,2.13,2.34c.83,5,1.39,10.06,2.06,15.1.87,6.45,1.76,12.9,2.63,19.35A89,89,0,0,0,64,72.9l2.91-8a4.91,4.91,0,0,1,3.29-4.3.3.3,0,0,1,.23,0c5,1.06,7.83-1.48,10.43-4.9,3-3.91,3.9-4,6.65,0A11.57,11.57,0,0,0,99.44,61a121.32,121.32,0,0,1,14.27-.09,31.41,31.41,0,0,1,3.86.53V64a16.37,16.37,0,0,1-3.52.82c-7.32.08-14.64,0-22,.08a4.11,4.11,0,0,1-3.54-1.61c-1.33-1.65-2.72-3.27-4.24-5.09a46.14,46.14,0,0,0-3.16,3.54A5.84,5.84,0,0,1,75,64.6c-2.56-.44-3.72.49-4.42,2.93-1.47,5.15-3.42,10.18-5.26,15.23a17.2,17.2,0,0,1-1.61,2.75H61.8a30.06,30.06,0,0,1-1.7-5.14c-1.24-8.65-2.31-17.31-3.46-26a113.64,113.64,0,0,0-2.23-12.68Q52.47,51,50.55,60.29c-.26,1.25-.44,2.53-.8,3.76-.68,2.31-2.31,2.68-4.22.91-2.15-2-4.2-4-6.3-6.07-.36-.35-.76-.65-1.29-1.1a62.39,62.39,0,0,1-3.63,5.37,4.53,4.53,0,0,1-2.89,1.6l-3.78,0A62.49,62.49,0,0,0,37,90.46c13.54,20.87,37.23,39.39,72.42,56.6l1.69.83,1.69-.83C130,138.68,144.36,130,156.2,120.85V105.08Z"/><path class="cls-2" d="M192.83,84.19h-4a64.17,64.17,0,0,1-3.57,6.27c-7,10.71-16.57,20.79-29.05,30.39v2.35a3.4,3.4,0,0,0,3.28,3.49h13.07a3.38,3.38,0,0,0,3.26-3.49V105.08h17a3.38,3.38,0,0,0,3.27-3.48V87.67A3.4,3.4,0,0,0,192.83,84.19Z"/><path class="cls-3" d="M2.83,60.89c-1.41,0-2.78.23-2.83,1.86s1.32,2.08,2.85,2.08c8.27,0,16.53,0,24.79,0q-.26-1.94-.39-3.9C19.11,60.85,11,60.88,2.83,60.89Z"/></g></g></svg>